HIERARCHY
ROOT Root
{
	OFFSET 0.00000 0.00000 0.00000
	CHANNELS 6 Xposition Yposition Zposition Zrotation Xrotation Yrotation
	JOINT Hip
	{
		OFFSET 0 0 0	
		CHANNELS 3 Zrotation Xrotation Yrotation
		JOINT Tummy
		{
			OFFSET 0 0.04 0	
			CHANNELS 3 Zrotation Xrotation Yrotation
			JOINT ChestBottom
			{
				OFFSET 0 0.194 0	
				CHANNELS 3 Zrotation Xrotation Yrotation
				JOINT ChestTop
				{
					OFFSET 0 0.166 0	
					CHANNELS 3 Zrotation Xrotation Yrotation
					JOINT LeftCollar
					{
						OFFSET 0 0.1 0	
						CHANNELS 3 Zrotation Xrotation Yrotation
						JOINT LeftUpperArm
						{
							OFFSET 0.156 -0.02 0.03	
							CHANNELS 3 Zrotation Xrotation Yrotation
							JOINT LeftForeArm
							{
								OFFSET 0.035 -0.27 -0.01	
								CHANNELS 3 Zrotation Xrotation Yrotation
								JOINT LeftHand
								{
									OFFSET 0.01 -0.27 0.01	
									CHANNELS 3 Zrotation Xrotation Yrotation
									End Site
									{
										OFFSET 0 -0.15 0
									}
								}
							}
						}
					}
					JOINT RightCollar
					{
						OFFSET 0 0.1 0	
						CHANNELS 3 Zrotation Xrotation Yrotation
						JOINT RightUpperArm
						{
							OFFSET -0.156 -0.02 0.03	
							CHANNELS 3 Zrotation Xrotation Yrotation
							JOINT RightForeArm
							{
								OFFSET -0.035 -0.27 -0.01	
								CHANNELS 3 Zrotation Xrotation Yrotation
								JOINT RightHand
								{
									OFFSET -0.01 -0.27 0.01	
									CHANNELS 3 Zrotation Xrotation Yrotation
									End Site
									{
										OFFSET 0 -0.15 0
									}
								}
							}
						}
					}
					JOINT Neck
					{
						OFFSET 0 0.1 0	
						CHANNELS 3 Zrotation Xrotation Yrotation
						JOINT Head
						{
							OFFSET 0 0.127 0.03	
							CHANNELS 3 Zrotation Xrotation Yrotation
							End Site
							{
								OFFSET 0 0.127 0.03
							}
						}
					}
				}
			}
		}
	}
	JOINT LeftHip
	{
		OFFSET 0 0 0	
		CHANNELS 3 Zrotation Xrotation Yrotation
		JOINT LeftThigh
		{
			OFFSET 0.088 -0.06 0	
			CHANNELS 3 Zrotation Xrotation Yrotation
			JOINT LeftLowerLeg
			{
				OFFSET 0 -0.39 0.02	
				CHANNELS 3 Zrotation Xrotation Yrotation
				JOINT LeftFootTop
				{
					OFFSET 0 -0.43 -0.02	
					CHANNELS 3 Zrotation Xrotation Yrotation
					JOINT LeftFootFront
					{
						OFFSET 0 -0.07 0.085	
						CHANNELS 3 Zrotation Xrotation Yrotation
						End Site
						{
							OFFSET 0 -0.005 0.09
						}
					}
				}
				JOINT LeftHeel
				{
					OFFSET 0 -0.43 -0.02	
					CHANNELS 3 Zrotation Xrotation Yrotation
					End Site
					{
						OFFSET 0 -0.075 -0.05
					}
				}
			}
		}
	}
	JOINT RightHip
	{
		OFFSET 0 0 0	
		CHANNELS 3 Zrotation Xrotation Yrotation
		JOINT RightThigh
		{
			OFFSET -0.088 -0.06 0	
			CHANNELS 3 Zrotation Xrotation Yrotation
			JOINT RightLowerLeg
			{
				OFFSET 0 -0.39 0.02	
				CHANNELS 3 Zrotation Xrotation Yrotation
				JOINT RightFootTop
				{
					OFFSET 0 -0.43 -0.02	
					CHANNELS 3 Zrotation Xrotation Yrotation
					JOINT RightFootFront
					{
						OFFSET 0 -0.07 0.085	
						CHANNELS 3 Zrotation Xrotation Yrotation
						End Site
						{
							OFFSET 0 -0.005 0.09
						}
					}
				}
				JOINT RightHeel
				{
					OFFSET 0 -0.43 -0.02	
					CHANNELS 3 Zrotation Xrotation Yrotation
					End Site
					{
						OFFSET 0 -0.075 -0.05
					}
				}
			}
		}
	}
}
MOTION
Frames: 23
Frame Time: 0.05
0 0.95725 0 -0 0 -0 -0.23785 1.85 0.25038 -0.17554 -2.6161 0.086512 -0.17554 -2.6161 0.086512 -0.1477 -2.1975 0.0732 -0 0 -0 1.5635 5.0493 -2.4403 1.099 0.99818 -11.884 -0 0 -0 -0 0 -0 2.4726 6.5259 -1.3003 -0.43282 1.55 3.6871 -0 0 -0 2.4232 -1.3908 -3.0579 2.4232 -1.3908 -3.0579 -0.23785 1.85 0.25038 0.98003 0.29855 0.2689 1.1112 -1.3619 3.5548 -0 0 -0 -0 0 -0 -0 0 -0 -0.23785 1.85 0.25038 -0.42182 -0.31412 -0.11422 0.12925 -2.1644 2.6615 -0 0 -0 -0 0 -0 -0 0 -0 
0 0.95725 0 -0 0 -0 -0.24284 1.8821 0.29742 -0.18724 -2.6531 0.081843 -0.18724 -2.6531 0.081843 -0.15751 -2.2286 0.069323 -0 0 -0 1.5721 5.1229 -2.4252 1.1563 1.0284 -11.857 -0 0 -0 -0 0 -0 2.4271 6.5866 -1.3136 -0.48021 1.5964 3.6632 -0 0 -0 2.4241 -1.3673 -3.1116 2.4241 -1.3673 -3.1116 -0.24284 1.8821 0.29742 0.96252 0.30158 0.26965 1.1212 -1.3779 3.5482 -0 0 -0 -0 0 -0 -0 0 -0 -0.24284 1.8821 0.29742 -0.42477 -0.33277 -0.12232 0.11895 -2.1667 2.6645 -0 0 -0 -0 0 -0 -0 0 -0 
0 0.95725 0 -0 0 -0 -0.24802 1.9082 0.35051 -0.19672 -2.6938 0.086662 -0.19672 -2.6938 0.086662 -0.1655 -2.2628 0.073409 -0 0 -0 1.5749 5.2135 -2.4409 1.185 1.0578 -11.782 -0 0 -0 -0 0 -0 2.3883 6.6487 -1.3644 -0.55122 1.6602 3.6675 -0 0 -0 2.4223 -1.3373 -3.182 2.4223 -1.3373 -3.182 -0.24802 1.9082 0.35051 0.94938 0.31546 0.22669 1.1281 -1.3978 3.5801 -0 0 -0 -0 0 -0 -0 0 -0 -0.24802 1.9082 0.35051 -0.42825 -0.34489 -0.13511 0.11006 -2.17 2.6678 -0 0 -0 -0 0 -0 -0 0 -0 
0 0.95725 0 -0 0 -0 -0.25871 1.921 0.40693 -0.20765 -2.7143 0.08405 -0.20765 -2.7143 0.08405 -0.17467 -2.28 0.071254 -0 0 -0 1.5795 5.2624 -2.449 1.2071 1.0348 -11.766 -0 0 -0 -0 0 -0 2.3695 6.6583 -1.3418 -0.61259 1.7275 3.6535 -0 0 -0 2.4468 -1.3487 -3.2133 2.4468 -1.3487 -3.2133 -0.25871 1.921 0.40693 0.92482 0.33566 0.16065 1.1593 -1.4161 3.6135 -0 0 -0 -0 0 -0 -0 0 -0 -0.25871 1.921 0.40693 -0.42809 -0.34065 -0.15996 0.11342 -2.1806 2.6768 -0 0 -0 -0 0 -0 -0 0 -0 
0 0.95725 0 -0 0 -0 -0.26949 1.9302 0.47498 -0.17788 -2.7095 0.063614 -0.17788 -2.7095 0.063614 -0.1496 -2.276 0.053994 -0 0 -0 1.4539 5.2121 -2.433 1.2369 1.0436 -11.738 -0 0 -0 -0 0 -0 2.205 6.6075 -1.1941 -0.60836 1.7824 3.5696 -0 0 -0 2.4286 -1.3813 -3.1971 2.4286 -1.3813 -3.1971 -0.26949 1.9302 0.47498 0.91843 0.35183 0.082917 1.1726 -1.4385 3.624 -0 0 -0 -0 0 -0 -0 0 -0 -0.26949 1.9302 0.47498 -0.43525 -0.33565 -0.2217 0.12181 -2.1801 2.6934 -0 0 -0 -0 0 -0 -0 0 -0 
0 0.95725 0 -0 0 -0 -0.26462 1.9202 0.49197 -0.15218 -2.7226 0.13713 -0.15218 -2.7226 0.13712 -0.12825 -2.287 0.11566 -0 0 -0 1.3656 5.2399 -2.5833 1.2553 1.0305 -11.696 -0 0 -0 -0 0 -0 2.0879 6.6092 -1.3017 -0.63642 1.8377 3.5049 -0 0 -0 2.4037 -1.3836 -3.2951 2.4037 -1.3836 -3.2951 -0.26462 1.9202 0.49197 0.88168 0.38314 0.062855 1.1932 -1.4433 3.6347 -0 0 -0 -0 0 -0 -0 0 -0 -0.26462 1.9202 0.49197 -0.4601 -0.31014 -0.22799 0.11744 -2.1794 2.705 -0 0 -0 -0 0 -0 -0 0 -0 
0 0.95725 0 -0 0 -0 -0.25277 1.9036 0.50941 -0.1733 -2.6746 0.17673 -0.1733 -2.6746 0.17673 -0.14611 -2.2466 0.14897 -0 0 -0 1.3953 5.0965 -2.6119 1.3025 0.98454 -11.737 -0 0 -0 -0 0 -0 2.113 6.4136 -1.3758 -0.6648 1.9043 3.4769 -0 0 -0 2.4493 -1.4552 -3.3646 2.4493 -1.4552 -3.3646 -0.25277 1.9036 0.50941 0.84733 0.42096 0.05247 1.201 -1.4421 3.6445 -0 0 -0 -0 0 -0 -0 0 -0 -0.25277 1.9036 0.50941 -0.50797 -0.27625 -0.23034 0.13249 -2.1874 2.7084 -0 0 -0 -0 0 -0 -0 0 -0 
0 0.95725 0 -0 0 -0 -0.24443 1.8997 0.53667 -0.19241 -2.6449 0.17761 -0.19241 -2.6449 0.17761 -0.16215 -2.2216 0.14977 -0 0 -0 1.4283 4.985 -2.5347 1.3528 0.92602 -11.852 -0 0 -0 -0 0 -0 2.1753 6.2986 -1.4317 -0.68125 1.9179 3.5092 -0 0 -0 2.4915 -1.5012 -3.3945 2.4915 -1.5012 -3.3945 -0.24443 1.8997 0.53667 0.80705 0.45594 0.020702 1.2193 -1.4555 3.6666 -0 0 -0 -0 0 -0 -0 0 -0 -0.24443 1.8997 0.53667 -0.54808 -0.26451 -0.24443 0.13867 -2.1891 2.7143 -0 0 -0 -0 0 -0 -0 0 -0 
0 0.95725 0 -0 0 -0 -0.24546 1.902 0.56701 -0.20594 -2.6197 0.16769 -0.20594 -2.6197 0.16769 -0.17349 -2.2005 0.14147 -0 0 -0 1.4781 4.8766 -2.4542 1.4033 0.88762 -11.916 -0 0 -0 -0 0 -0 2.2446 6.2086 -1.4797 -0.70537 1.9095 3.547 -0 0 -0 2.5371 -1.542 -3.4054 2.5371 -1.542 -3.4054 -0.24546 1.902 0.56701 0.78016 0.47207 -0.012432 1.2412 -1.4702 3.6755 -0 0 -0 -0 0 -0 -0 0 -0 -0.24546 1.902 0.56701 -0.58299 -0.24494 -0.24285 0.15441 -2.2164 2.7009 -0 0 -0 -0 0 -0 -0 0 -0 
0 0.95725 0 -0 0 -0 -0.25954 1.9206 0.5919 -0.19067 -2.608 0.17046 -0.19067 -2.608 0.17046 -0.16067 -2.1907 0.14375 -0 0 -0 1.4693 4.8024 -2.4242 1.4317 0.86713 -11.977 -0 0 -0 -0 0 -0 2.2374 6.1727 -1.5846 -0.7262 1.8847 3.5922 -0 0 -0 2.543 -1.5797 -3.428 2.543 -1.5797 -3.4281 -0.25954 1.9206 0.5919 0.76734 0.48744 -0.033492 1.282 -1.5178 3.6838 -0 0 -0 -0 0 -0 -0 0 -0 -0.25954 1.9206 0.5919 -0.59063 -0.23226 -0.25907 0.15753 -2.2583 2.7152 -0 0 -0 -0 0 -0 -0 0 -0 
0 0.95725 0 -0 0 -0 -0.27237 1.9543 0.61652 -0.17778 -2.6019 0.17894 -0.17778 -2.6019 0.17894 -0.14986 -2.1855 0.15084 -0 0 -0 1.4575 4.7548 -2.4242 1.4522 0.86812 -12 -0 0 -0 -0 0 -0 2.2293 6.1172 -1.6911 -0.66701 1.8616 3.6031 -0 0 -0 2.5441 -1.6214 -3.4559 2.5441 -1.6214 -3.4559 -0.27237 1.9543 0.61652 0.7475 0.48358 -0.078169 1.3207 -1.5654 3.697 -0 0 -0 -0 0 -0 -0 0 -0 -0.27237 1.9543 0.61652 -0.61306 -0.24542 -0.27147 0.19959 -2.3053 2.7381 -0 0 -0 -0 0 -0 -0 0 -0 
0 0.95725 0 -0 0 -0 -0.27579 1.9908 0.63786 -0.20566 -2.6292 0.18262 -0.20566 -2.6292 0.18262 -0.17329 -2.2085 0.15402 -0 0 -0 1.541 4.8255 -2.3942 1.496 0.81428 -12.075 -0 0 -0 -0 0 -0 2.3366 6.1533 -1.7525 -0.64525 1.8414 3.5904 -0 0 -0 2.5975 -1.5947 -3.463 2.5975 -1.5947 -3.463 -0.27579 1.9908 0.63786 0.71089 0.48038 -0.11248 1.3703 -1.6331 3.6999 -0 0 -0 -0 0 -0 -0 0 -0 -0.27579 1.9908 0.63786 -0.65561 -0.26224 -0.28481 0.24038 -2.3632 2.7646 -0 0 -0 -0 0 -0 -0 0 -0 
0 0.95725 0 -0 0 -0 -0.27146 2.0153 0.65667 -0.22445 -2.6269 0.16392 -0.22445 -2.6269 0.16392 -0.18902 -2.2065 0.13837 -0 0 -0 1.5848 4.8126 -2.3305 1.5514 0.79146 -12.124 -0 0 -0 -0 0 -0 2.3929 6.1245 -1.7944 -0.64067 1.8284 3.6206 -0 0 -0 2.6294 -1.5554 -3.4212 2.6294 -1.5554 -3.4212 -0.27146 2.0153 0.65667 0.65383 0.49206 -0.112 1.4178 -1.6977 3.681 -0 0 -0 -0 0 -0 -0 0 -0 -0.27146 2.0153 0.65667 -0.68249 -0.28056 -0.29745 0.25006 -2.402 2.7924 -0 0 -0 -0 0 -0 -0 0 -0 
0 0.95725 0 -0 0 -0 -0.26565 2.0221 0.6849 -0.23205 -2.6093 0.13086 -0.23205 -2.6093 0.13086 -0.1953 -2.1917 0.11062 -0 0 -0 1.6036 4.7619 -2.2578 1.5721 0.74382 -12.247 -0 0 -0 -0 0 -0 2.3917 6.0882 -1.8355 -0.63619 1.8068 3.7335 -0 0 -0 2.6431 -1.5268 -3.3572 2.6431 -1.5268 -3.3572 -0.26565 2.0221 0.6849 0.55894 0.57256 -0.13212 1.4577 -1.8505 3.6452 -0 0 -0 -0 0 -0 -0 0 -0 -0.26565 2.0221 0.6849 -0.74175 -0.26295 -0.30967 0.27894 -2.437 2.8098 -0 0 -0 -0 0 -0 -0 0 -0 
0 0.95725 0 -0 0 -0 -0.24245 2.0559 0.76345 -0.24864 -2.5969 0.0789 -0.24864 -2.5969 0.0789 -0.20907 -2.1814 0.067026 -0 0 -0 1.6138 4.6498 -2.2496 1.5603 0.76132 -12.331 -0 0 -0 -0 0 -0 2.3794 6.0094 -1.7487 -0.63506 1.8258 3.7975 -0 0 -0 2.6543 -1.5191 -3.2838 2.6543 -1.5191 -3.2838 -0.24245 2.0559 0.76345 0.38142 0.93707 -0.40652 1.6601 -2.2458 3.8182 -0 0 -0 -0 0 -0 -0 0 -0 -0.24245 2.0559 0.76345 -0.91207 -0.14996 -0.30234 0.38835 -2.6453 2.8367 -0 0 -0 -0 0 -0 -0 0 -0 
0 0.95725 0 -0 0 -0 -0.15879 2.2042 1.0393 -0.29955 -2.6055 -0.088587 -0.29955 -2.6055 -0.088587 -0.25132 -2.1887 -0.073488 -0 0 -0 1.5738 4.3347 -2.1766 1.5583 0.97561 -12.367 -0 0 -0 -0 0 -0 2.4606 5.9824 -1.2746 -0.7091 1.7769 3.8261 -0 0 -0 2.6387 -1.5337 -3.1215 2.6387 -1.5337 -3.1215 -0.15879 2.2042 1.0393 0.034509 1.8562 -1.3454 2.2417 -3.5952 3.5111 -0 0 -0 -0 0 -0 -0 0 -0 -0.15879 2.2042 1.0393 -1.593 0.34625 -0.3803 1.3241 -3.776 3.1247 -0 0 -0 -0 0 -0 -0 0 -0 
0 0.95725 0 -0 0 -0 -0.044826 2.5966 1.7301 -0.38229 -2.5905 -0.46169 -0.38229 -2.5905 -0.46169 -0.31968 -2.1762 -0.38661 -0 0 -0 1.7007 3.4664 -2.0685 1.1971 1.2492 -11.626 -0 0 -0 -0 0 -0 2.759 5.791 -0.20557 -0.99114 1.6761 3.7671 -0 0 -0 2.4959 -1.7277 -2.7337 2.4959 -1.7277 -2.7337 -0.044826 2.5966 1.7301 -0.32373 3.3469 -3.0979 3.23 -6.5773 2.6992 -0 0 -0 -0 0 -0 -0 0 -0 -0.044826 2.5966 1.7301 -3.2058 1.4837 -0.27051 3.9457 -6.9135 2.1383 -0 0 -0 -0 0 -0 -0 0 -0 
0 0.95725 0 -0 0 -0 -0.18666 3.3487 2.8872 -0.46028 -2.669 -0.94261 -0.46028 -2.669 -0.94261 -0.38363 -2.2425 -0.79025 -0 0 -0 2.6851 2.3914 -1.6306 -0.13352 2.5108 -5.8139 -0 0 -0 -0 0 -0 3.6917 5.7811 1.767 -1.8598 1.3956 2.4945 -0 0 -0 2.2407 -1.7524 -2.0704 2.2407 -1.7524 -2.0704 -0.18666 3.3487 2.8872 -0.25886 4.6495 -4.8286 4.2314 -10.681 1.4022 -0 0 -0 -0 0 -0 -0 0 -0 -0.18666 3.3487 2.8872 -5.6756 3.4257 0.0081472 8.9214 -12.897 0.71856 -0 0 -0 -0 0 -0 -0 0 -0 
0 0.95725 0 -0 0 -0 -0.83887 4.3054 4.8106 -0.47473 -3.0275 -1.346 -0.47473 -3.0275 -1.346 -0.39393 -2.5439 -1.1288 -0 0 -0 4.0945 2.376 0.34578 -1.5928 6.7223 11.125 -0 0 -0 -0 0 -0 5.5567 6.9863 4.3633 -3.4672 0.57564 -0.59138 -0 0 -0 1.6408 -1.1522 -1.2619 1.6408 -1.1522 -1.2619 -0.83887 4.3054 4.8106 -0.5923 6.0131 -7.1288 6.2649 -15.013 1.6231 -0 0 -0 -0 0 -0 -0 0 -0 -0.83887 4.3054 4.8106 -8.3473 5.8541 -0.75844 15.701 -20.645 1.0525 -0 0 -0 -0 0 -0 -0 0 -0 
0 0.95725 0 -0 0 -0 -1.9744 5.6483 8.4437 -0.63726 -3.7672 -1.5438 -0.63726 -3.7672 -1.5438 -0.52833 -3.1657 -1.2936 -0 0 -0 5.8134 3.1462 3.5293 -4.2944 13.771 36.315 -0 0 -0 -0 0 -0 8.4412 9.8607 5.9095 -4.9198 -1.4811 -3.6348 -0 0 -0 0.93133 -0.04833 -0.58616 0.93133 -0.048328 -0.58616 -1.9744 5.6483 8.4437 -0.96876 5.4947 -7.777 7.3401 -16.549 0.091978 -0 0 -0 -0 0 -0 -0 0 -0 -1.9744 5.6483 8.4437 -11.052 7.0351 -0.89656 26.671 -27.068 9.6573 -0 0 -0 -0 0 -0 -0 0 -0 
0 0.95725 0 -0 0 -0 -4.1829 8.0196 14.567 -0.80927 -5.1174 -1.7076 -0.80927 -5.1174 -1.7076 -0.6692 -4.3003 -1.4288 -0 0 -0 9.6622 3.4882 7.2308 -10.716 21.039 63.011 -0 0 -0 -0 0 -0 12.015 12.835 7.2711 -5.7487 -4.0857 -6.5802 -0 0 -0 0.12446 1.4963 0.32004 0.12446 1.4963 0.32004 -4.1829 8.0196 14.567 -1.0438 4.2038 -10.348 8.1025 -18.388 -2.3976 -0 0 -0 -0 0 -0 -0 0 -0 -4.1829 8.0196 14.567 -11.563 1.4637 -0.64546 36.777 -27.157 22.929 -0 0 -0 -0 0 -0 -0 0 -0 
0 0.95725 0 -0 0 -0 -7.6442 8.4499 22.607 0.10199 -5.8592 -1.557 0.10199 -5.8592 -1.557 0.096362 -4.9216 -1.3078 -0 0 -0 12.602 3.2138 10.222 -16.957 23.534 80.455 -0 0 -0 -0 0 -0 14.266 13.913 10.855 -5.6901 -6.8246 -9.585 -0 0 -0 -1.9888 2.8679 1.5394 -1.9888 2.8679 1.5394 -7.6442 8.4499 22.607 -0.50749 5.4583 -11.633 8.3349 -21.778 -5.5033 -0 0 -0 -0 0 -0 -0 0 -0 -7.6442 8.4499 22.607 -11.663 -2.6771 6.3754 39.678 -30.179 25.098 -0 0 -0 -0 0 -0 -0 0 -0 
0 0.95725 0 -0 0 -0 -9.315 4.6655 31.71 1.1288 -4.7193 -0.25748 1.1288 -4.7193 -0.25749 0.94926 -3.9639 -0.22247 -0 0 -0 13.796 1.0514 14.238 -18.501 22.948 82.308 -0 0 -0 -0 0 -0 17.954 10.207 16.153 -4.0759 -8.4146 -11.473 -0 0 -0 -4.4716 3.7518 1.417 -4.4716 3.7518 1.417 -9.315 4.6655 31.71 0.09857 9.4891 -6.0673 4.9347 -23.14 -15.221 -0 0 -0 -0 0 -0 -0 0 -0 -9.315 4.6655 31.71 -10.534 -1.096 10.692 35.75 -35.491 17.492 -0 0 -0 -0 0 -0 -0 0 -0 
